Coordinates
version=1
nRows=21
nColumns=12
inDegrees=yes

Units are S.I. units (second, meters, Newtons, ...)
Angles are in degrees

endheader
time	SC_y	SC_z	SC_x	AC_y	AC_z	AC_x	GH_y	GH_z	GH_yy	EL_x	PS_y
       0.0              -55.64          16.87          11.64          30.38          4.298         -1.178          41.11          6.292          49.72          56.85          52.19
   0.02885              -55.63          16.87          11.64          30.39          4.296         -1.179          41.13          6.303          49.71          56.85           52.2
   0.05771              -55.63          16.88          11.64          30.39          4.295         -1.181          41.15          6.314           49.7          56.84          52.21
   0.08656              -55.62          16.88          11.64           30.4          4.293         -1.182          41.16          6.325           49.7          56.83          52.23
    0.1154              -55.61          16.88          11.64           30.4          4.292         -1.184          41.19          6.338          49.69          56.83          52.24
    0.1443              -55.61          16.88          11.65           30.4           4.29         -1.186          41.21          6.351          49.68          56.82          52.25
    0.1731               -55.6          16.88          11.65          30.41          4.288         -1.188          41.23          6.366          49.67          56.81          52.26
     0.202              -55.59          16.89          11.65          30.42          4.286          -1.19          41.26          6.381          49.66           56.8          52.28
    0.2308              -55.58          16.89          11.65          30.42          4.284         -1.192          41.28          6.397          49.65           56.8          52.29
    0.2597              -55.57          16.89          11.65          30.43          4.282         -1.194          41.31          6.415          49.64          56.79          52.31
    0.2885              -55.56          16.89          11.66          30.44          4.279         -1.196          41.35          6.434          49.63          56.78          52.33
    0.3174              -55.55           16.9          11.66          30.44          4.277         -1.199          41.38          6.454          49.61          56.76          52.35
    0.3462              -55.53           16.9          11.66          30.45          4.274         -1.202          41.42          6.476           49.6          56.75          52.37
    0.3751              -55.52           16.9          11.67          30.46          4.271         -1.205          41.46          6.499          49.59          56.74          52.39
    0.4039               -55.5          16.91          11.67          30.47          4.267         -1.208           41.5          6.525          49.57          56.73          52.41
    0.4328              -55.49          16.91          11.67          30.48          4.264         -1.212          41.54          6.553          49.55          56.71          52.44
    0.4617              -55.47          16.92          11.68          30.49           4.26         -1.216           41.6          6.583          49.53          56.69          52.47
    0.4905              -55.45          16.92          11.68           30.5          4.256          -1.22          41.65          6.616          49.51          56.68           52.5
    0.5194              -55.43          16.93          11.69          30.52          4.251         -1.225          41.71          6.652          49.49          56.66          52.53
    0.5482              -55.41          16.93          11.69          30.53          4.246          -1.23          41.78          6.691          49.46          56.63          52.57
    0.5771              -55.38          16.94           11.7          30.55           4.24         -1.235          41.85          6.734          49.44          56.61          52.61
